<svg
    xmlns="http://www.w3.org/2000/svg"
    viewBox="0 0 108 108"
    id="vector">
    <g
        id="group"
        transform="translate(22.68 22.68) scale(2.61 2.61)">
        <path
            id="path"
            d="M 21.67 18.17 L 16.37 12.87 L 15.38 12.87 L 12.84 15.41 L 12.84 16.4 L 18.14 21.7 C 18.53 22.09 19.16 22.09 19.55 21.7 L 21.67 19.58 C 22.06 19.2 22.06 18.56 21.67 18.17 Z"
            fill="#192fbf"/>
        <path
            id="path_1"
            d="M 17.34 10.19 L 18.75 8.78 L 20.87 10.9 C 22.04 9.73 22.04 7.83 20.87 6.66 L 17.33 3.12 L 15.92 4.53 L 15.92 1.71 L 15.22 1 L 11.68 4.54 L 12.39 5.25 L 15.22 5.25 L 13.81 6.66 L 14.87 7.72 L 11.98 10.61 L 7.85 6.48 L 7.85 5.06 L 4.83 2.04 L 2 4.87 L 5.03 7.9 L 6.44 7.9 L 10.57 12.03 L 9.72 12.88 L 7.6 12.88 L 2.3 18.18 C 1.91 18.57 1.91 19.2 2.3 19.59 L 4.42 21.71 C 4.81 22.1 5.44 22.1 5.83 21.71 L 11.13 16.41 L 11.13 14.29 L 16.28 9.14 L 17.34 10.19 Z"
            fill="#192fbf"/>
    </g>
</svg>
