<svg
    xmlns="http://www.w3.org/2000/svg"
    viewBox="0 0 108 108"
    id="vector">
    <g
        id="group"
        transform="translate(22.68 22.68) scale(2.61 2.61)">
        <path
            id="path"
            d="M 19.48 12.35 C 17.91 8.27 12.32 8.05 13.67 2.12 C 13.77 1.68 13.3 1.34 12.92 1.57 C 9.29 3.71 6.68 8 8.87 13.62 C 9.05 14.08 8.51 14.51 8.12 14.21 C 6.31 12.84 6.12 10.87 6.28 9.46 C 6.34 8.94 5.66 8.69 5.37 9.12 C 4.69 10.16 4 11.84 4 14.37 C 4.38 19.97 9.11 21.69 10.81 21.91 C 13.24 22.22 15.87 21.77 17.76 20.04 C 19.84 18.11 20.6 15.03 19.48 12.35 Z M 10.2 17.38 C 11.64 17.03 12.38 15.99 12.58 15.07 C 12.91 13.64 11.62 12.24 12.49 9.98 C 12.82 11.85 15.76 13.02 15.76 15.06 C 15.84 17.59 13.1 19.76 10.2 17.38 Z"
            fill="#bf1919"/>
    </g>
</svg>
