<svg
    xmlns="http://www.w3.org/2000/svg"
    viewBox="0 0 108 108"
    id="vector">
    <g
        id="group_1"
        transform="translate(27.54 27.54) scale(2.646 2.646)">
        <path
            id="path_2"
            d="M 14.69 6.01 C 14.34 3.78 12.44 2.06 10.11 2.01 C 10.07 2 10.04 2 10 2 C 8.19 2 6.6 3.02 5.8 4.52 C 3.71 4.74 2.05 6.49 2 8.65 C 1.95 11 3.81 12.94 6.15 13 L 14.5 13 C 16.43 13 18 11.43 18 9.5 C 18 7.63 16.54 6.1 14.69 6.01 Z"
            fill="#2fb964"/>
        <path
            id="path_3"
            d="M 8.5 16.74 L 7.21 16.27 L 8.32 15.31 C 8.63 15.04 8.67 14.57 8.4 14.25 C 8.13 13.94 7.66 13.9 7.34 14.17 L 5.26 15.97 C 5.06 16.14 4.96 16.41 5.01 16.67 C 5.06 16.93 5.24 17.15 5.49 17.24 L 6.78 17.71 L 5.67 18.67 C 5.36 18.94 5.32 19.41 5.59 19.73 C 5.75 19.91 5.96 20 6.17 20 C 6.34 20 6.52 19.94 6.66 19.82 L 8.74 18.02 C 8.94 17.85 9.04 17.58 8.99 17.32 C 8.94 17.06 8.75 16.83 8.5 16.74 Z"
            fill="#2fb964"/>
        <path
            id="path_4"
            d="M 13.5 16.74 L 12.21 16.27 L 13.32 15.31 C 13.63 15.04 13.67 14.57 13.4 14.25 C 13.13 13.94 12.65 13.9 12.34 14.17 L 10.26 15.97 C 10.06 16.14 9.96 16.41 10.01 16.67 C 10.06 16.93 10.24 17.15 10.49 17.24 L 11.78 17.71 L 10.67 18.67 C 10.36 18.94 10.32 19.41 10.59 19.73 C 10.74 19.9 10.95 19.99 11.16 19.99 C 11.33 19.99 11.51 19.93 11.65 19.81 L 13.73 18.01 C 13.93 17.84 14.03 17.57 13.98 17.31 C 13.93 17.05 13.75 16.83 13.5 16.74 Z"
            fill="#2fb964"/>
    </g>
</svg>
